# Blender 4.3.1
# www.blender.org
mtllib road-sprunk-hero.mtl
o Cube.003
v -1.520000 -0.023243 37.763046
v -1.520000 0.016757 37.763046
v -1.520000 -0.023243 -22.236954
v -1.520000 0.016757 -22.236954
v -1.480000 -0.023243 37.763046
v -1.480000 0.016757 37.763046
v -1.480000 -0.023243 -22.236954
v -1.480000 0.016757 -22.236954
v 2.500000 -0.000685 -22.236954
v 2.500000 -0.200685 -22.236954
v 2.500000 -0.000685 37.763046
v 2.500000 -0.200685 37.763046
v -2.500000 -0.000685 -22.236954
v -2.500000 -0.200685 -22.236954
v -2.500000 -0.000685 37.763046
v -2.500000 -0.200685 37.763046
v 2.428371 -0.000685 37.760960
v -2.428371 -0.000685 37.760960
v 2.428371 -0.000685 -22.234865
v -2.428371 -0.000685 -22.234865
v 2.500000 0.069471 -22.236954
v 2.500000 0.069471 37.763046
v -2.500000 0.069471 37.763046
v -2.500000 0.069471 -22.236954
v 2.428540 0.069471 -22.236954
v 2.428540 0.069471 37.763046
v -2.428540 0.069471 37.763046
v -2.428540 0.069471 -22.236954
v -0.520000 -0.023243 37.763046
v -0.520000 0.016757 37.763046
v -0.520000 -0.023243 -22.236954
v -0.520000 0.016757 -22.236954
v -0.480000 -0.023243 37.763046
v -0.480000 0.016757 37.763046
v -0.480000 -0.023243 -22.236954
v -0.480000 0.016757 -22.236954
v 0.480000 -0.023243 37.763046
v 0.480000 0.016757 37.763046
v 0.480000 -0.023243 -22.236954
v 0.480000 0.016757 -22.236954
v 0.520000 -0.023243 37.763046
v 0.520000 0.016757 37.763046
v 0.520000 -0.023243 -22.236954
v 0.520000 0.016757 -22.236954
v 1.480000 -0.023243 37.763046
v 1.480000 0.016757 37.763046
v 1.480000 -0.023243 -22.236954
v 1.480000 0.016757 -22.236954
v 1.520000 -0.023243 37.763046
v 1.520000 0.016757 37.763046
v 1.520000 -0.023243 -22.236954
v 1.520000 0.016757 -22.236954
vn -1.0000 -0.0000 -0.0000
vn -0.0000 -0.0000 -1.0000
vn 1.0000 -0.0000 -0.0000
vn -0.0000 -0.0000 1.0000
vn -0.0000 -1.0000 -0.0000
vn -0.0000 1.0000 -0.0000
vn 0.0146 -0.0149 -0.9998
vn -0.0146 -0.0148 0.9998
vn -1.0000 0.0024 -0.0000
vn -0.0146 -0.0149 -0.9998
vn 0.0146 -0.0148 0.9998
vn 1.0000 0.0024 -0.0000
vt 0.998606 0.000036
vt 0.998606 1.000000
vt 0.998617 1.000000
vt 0.998617 0.000036
vt 0.998368 0.999969
vt 0.998349 1.000000
vt 0.998368 1.000000
vt 0.999661 0.000036
vt 0.998349 0.000036
vt 0.999661 1.000000
vt 0.996804 3.922251
vt 0.003195 3.922251
vt 0.003195 -2.922251
vt 0.996804 -2.922251
vt 0.999642 0.000069
vt 0.999642 0.000036
vt 0.999642 0.999969
vt 0.998368 0.000069
vt 0.998368 0.000036
vt 0.999642 1.000000
vt 0.998869 0.000036
vt 0.998869 1.000000
vt 0.998879 1.000000
vt 0.998879 0.000036
vt 0.999131 0.000036
vt 0.999131 1.000000
vt 0.999142 1.000000
vt 0.999142 0.000036
vt 0.999394 0.000036
vt 0.999394 1.000000
vt 0.999404 1.000000
vt 0.999404 0.000036
s 0
usemtl Plate
f 1/1/1 2/1/1 4/2/1 3/2/1
f 3/2/2 4/2/2 8/3/2 7/3/2
f 7/3/3 8/3/3 6/4/3 5/4/3
f 5/4/4 6/4/4 2/1/4 1/1/4
f 3/2/5 7/3/5 5/4/5 1/1/5
f 8/3/6 4/2/6 2/1/6 6/4/6
f 20/5/7 13/6/7 24/6/7 28/7/7
f 12/8/4 11/8/4 15/9/4 16/9/4
f 16/9/1 15/9/1 13/6/1 14/6/1
f 14/6/5 10/10/5 12/8/5 16/9/5
f 10/10/3 9/10/3 11/8/3 12/8/3
f 14/6/2 13/6/2 9/10/2 10/10/2
f 19/11/6 20/12/6 18/13/6 17/14/6
f 17/15/8 11/8/8 22/8/8 26/16/8
f 9/10/6 13/6/6 20/5/6 19/17/6
f 15/9/6 11/8/6 17/15/6 18/18/6
f 24/6/6 23/9/6 27/19/6 28/7/6
f 22/8/6 21/10/6 25/20/6 26/16/6
f 19/17/9 17/15/9 26/16/9 25/20/9
f 13/6/1 15/9/1 23/9/1 24/6/1
f 9/10/10 19/17/10 25/20/10 21/10/10
f 11/8/3 9/10/3 21/10/3 22/8/3
f 15/9/11 18/18/11 27/19/11 23/9/11
f 18/18/12 20/5/12 28/7/12 27/19/12
f 29/21/1 30/21/1 32/22/1 31/22/1
f 31/22/2 32/22/2 36/23/2 35/23/2
f 35/23/3 36/23/3 34/24/3 33/24/3
f 33/24/4 34/24/4 30/21/4 29/21/4
f 31/22/5 35/23/5 33/24/5 29/21/5
f 36/23/6 32/22/6 30/21/6 34/24/6
f 37/25/1 38/25/1 40/26/1 39/26/1
f 39/26/2 40/26/2 44/27/2 43/27/2
f 43/27/3 44/27/3 42/28/3 41/28/3
f 41/28/4 42/28/4 38/25/4 37/25/4
f 39/26/5 43/27/5 41/28/5 37/25/5
f 44/27/6 40/26/6 38/25/6 42/28/6
f 45/29/1 46/29/1 48/30/1 47/30/1
f 47/30/2 48/30/2 52/31/2 51/31/2
f 51/31/3 52/31/3 50/32/3 49/32/3
f 49/32/4 50/32/4 46/29/4 45/29/4
f 47/30/5 51/31/5 49/32/5 45/29/5
f 52/31/6 48/30/6 46/29/6 50/32/6
